<?xml version="1.0" encoding="UTF-8" standalone="no"?>
<svg width="201px" height="64px" viewBox="0 0 201 64" version="1.1" xmlns="http://www.w3.org/2000/svg" xmlns:xlink="http://www.w3.org/1999/xlink">
    <!-- Generator: Sketch 48.2 (47327) - http://www.bohemiancoding.com/sketch -->
    <title>SRegis-logo-color</title>
    <desc>Created with Sketch.</desc>
    <defs></defs>
    <g id="Page-1" stroke="none" stroke-width="1" fill="none" fill-rule="evenodd">
        <g id="SRegis-logo-color">
            <path d="M0.484110638,43.7495745 L0,43.7495745 L0,37.7914213 L0.658595745,37.7914213 C1.59345957,40.9441277 3.9840766,43.3689574 7.34377021,43.3689574 C10.3237021,43.3689574 13.164217,41.3940255 13.164217,38.3465234 C13.164217,36.3023106 12.6792511,35.3665915 10.0115106,34.293166 C8.73024255,33.8082 3.36140426,32.0411106 2.83965957,31.6947064 C0.832225532,30.4476511 0.0350680851,28.3341574 0.0350680851,26.3942936 C0.0350680851,24.9744638 0.450753191,23.7616213 1.45489787,22.4452851 C2.49411064,21.0947362 4.19106383,19.9862426 6.82459149,19.9862426 C8.41805106,19.9862426 10.6701064,20.9903872 11.3629149,21.5104213 L12.6792511,20.5062766 L13.164217,20.5062766 L13.164217,25.910183 L12.4705532,25.910183 C11.7084638,23.0346 9.6659617,20.7834 6.58168085,20.7834 C4.22613191,20.7834 1.66359574,22.4110723 1.66359574,25.0086766 C1.66359574,30.7598426 14.791034,27.0528894 14.791034,36.4750851 C14.791034,41.2212511 11.8128128,44.1652596 7.27363404,44.1652596 C5.33548085,44.1652596 3.3947617,43.6460809 1.97493191,42.2262511 L0.484110638,43.7495745" id="Fill-1" fill="#004972"></path>
            <path d="M22.1348043,43.6460809 L22.1348043,42.8489234 L19.1557277,42.8489234 L21.6164809,35.2280298 L28.2323745,35.2280298 L30.6212809,42.8489234 L27.815834,42.8489234 L27.815834,43.6460809 L36.5452213,43.6460809 L36.5452213,42.8489234 L34.1212468,42.8489234 L26.9861745,20.1940851 L25.6347702,20.1940851 L18.1173702,42.8489234 L15.3803489,42.8489234 L15.3803489,43.6460809 L22.1348043,43.6460809 Z M21.927817,34.2580979 L24.9761745,24.8701149 L25.0446,24.8701149 L27.8851149,34.2580979 L21.927817,34.2580979 Z" id="Fill-2" fill="#004972"></path>
            <path d="M46.4883064,43.6460809 L46.4883064,42.8489234 L43.7512851,42.8489234 L43.7512851,31.5561447 L45.8297106,31.5561447 C50.1935489,31.5561447 50.5057404,34.1546043 50.6776596,35.7472085 C50.9214255,37.8264894 51.1284128,40.6319362 51.3020426,41.2554638 C51.7536511,42.8839915 53.1384128,44.2003277 55.5974553,44.1652596 C56.4981064,44.1310468 57.5031064,43.9232043 58.6791702,43.5075191 L58.6791702,42.6410809 C57.5373191,43.056766 56.2551957,43.2646085 55.5974553,42.8147106 C54.835366,42.4683064 54.6266681,40.9099149 54.7318723,39.2463191 C55.0440638,33.7739872 52.3412553,32.3190894 48.3588894,31.3140894 L48.3588894,31.2448085 C51.6133787,30.9676851 55.5974553,30.1021021 55.5974553,25.5637787 C55.5974553,24.0045319 54.5933106,20.5062766 47.9414936,20.5062766 L37.7238511,20.5062766 L37.7238511,21.3025787 L40.3907362,21.3025787 L40.3907362,42.8489234 L37.7238511,42.8489234 L37.7238511,43.6460809 L46.4883064,43.6460809 Z M43.7512851,21.3025787 L47.0425532,21.3025787 C50.3671787,21.3025787 51.8220766,22.3417915 51.8220766,25.7023404 C51.8220766,30.4476511 49.4314596,30.7598426 45.6227234,30.7598426 L43.7512851,30.7598426 L43.7512851,21.3025787 Z" id="Fill-3" fill="#004972"></path>
            <path d="M60.4471149,43.6460809 L60.4471149,42.8489234 L63.4954723,42.8489234 L63.4954723,21.3025787 L60.4471149,21.3025787 L60.4471149,20.5062766 L78.0110936,20.5062766 L78.0110936,26.1522383 L77.2472936,26.1522383 C76.6579787,22.0304553 74.5111277,21.3025787 71.3592766,21.3025787 L66.855166,21.3025787 L66.855166,31.2798766 C70.3534213,31.2798766 71.4627702,31.2448085 71.9468809,27.5720681 L72.7089702,27.5720681 L72.7089702,36.3365234 L71.9468809,36.3365234 C71.7398936,32.6304255 70.2849957,32.1805277 66.855166,32.1454596 L66.855166,42.8489234 L71.0479404,42.8489234 C75.618766,42.8489234 77.1438,42.2955319 78.0444511,37.1687489 L78.9451021,37.1687489 L78.4952043,43.6460809 L60.4471149,43.6460809" id="Fill-4" fill="#004972"></path>
            <path d="M82.4082894,43.7495745 L81.9233234,43.7495745 L81.9233234,37.7914213 L82.5819191,37.7914213 C83.5176383,40.9441277 85.9082553,43.3689574 89.2679489,43.3689574 C92.2478809,43.3689574 95.0875404,41.3940255 95.0875404,38.3465234 C95.0875404,36.3023106 94.6034298,35.3665915 91.9356894,34.293166 C90.6544213,33.8082 85.2847277,32.0411106 84.7638383,31.6947064 C82.7555489,30.4476511 81.9583915,28.3341574 81.9583915,26.3942936 C81.9583915,24.9744638 82.3749319,23.7616213 83.3799319,22.4452851 C84.4191447,21.0947362 86.1169532,19.9862426 88.7496255,19.9862426 C90.3422298,19.9862426 92.5934298,20.9903872 93.2870936,21.5104213 L94.6034298,20.5062766 L95.0875404,20.5062766 L95.0875404,25.910183 L94.3964426,25.910183 C93.6326426,23.0346 91.5901404,20.7834 88.5058596,20.7834 C86.1503106,20.7834 83.5877745,22.4110723 83.5877745,25.0086766 C83.5877745,30.7598426 96.7152128,27.0528894 96.7152128,36.4750851 C96.7152128,41.2212511 93.7378468,44.1652596 89.1995234,44.1652596 C87.2596596,44.1652596 85.3180851,43.6460809 83.8982553,42.2262511 L82.4082894,43.7495745" id="Fill-5" fill="#004972"></path>
            <path d="M116.738234,43.6460809 L116.738234,42.8489234 L114.002068,42.8489234 L114.002068,31.5561447 L116.079638,31.5561447 C120.443477,31.5561447 120.757379,34.1546043 120.929298,35.7472085 C121.171353,37.8264894 121.379196,40.6319362 121.552826,41.2554638 C122.003579,42.8839915 123.390051,44.2003277 125.849094,44.1652596 C126.748034,44.1310468 127.753889,43.9232043 128.931664,43.5075191 L128.931664,42.6410809 C127.787247,43.056766 126.507689,43.2646085 125.849094,42.8147106 C125.08786,42.4683064 124.878306,40.9099149 124.982655,39.2463191 C125.294847,33.7739872 122.592038,32.3190894 118.608817,31.3140894 L118.608817,31.2448085 C121.865017,30.9676851 125.849094,30.1021021 125.849094,25.5637787 C125.849094,24.0045319 124.843238,20.5062766 118.193132,20.5062766 L107.974634,20.5062766 L107.974634,21.3025787 L110.640664,21.3025787 L110.640664,42.8489234 L107.974634,42.8489234 L107.974634,43.6460809 L116.738234,43.6460809 Z M114.002068,21.3025787 L117.292481,21.3025787 C120.617106,21.3025787 122.073715,22.3417915 122.073715,25.7023404 C122.073715,30.4476511 119.681387,30.7598426 115.872651,30.7598426 L114.002068,30.7598426 L114.002068,21.3025787 Z" id="Fill-6" fill="#004972"></path>
            <path d="M130.697043,43.6460809 L130.697043,42.8489234 L133.746255,42.8489234 L133.746255,21.3025787 L130.697043,21.3025787 L130.697043,20.5062766 L148.261021,20.5062766 L148.261021,26.1522383 L147.499787,26.1522383 C146.909617,22.0304553 144.761911,21.3025787 141.609204,21.3025787 L137.105094,21.3025787 L137.105094,31.2798766 C140.60506,31.2798766 141.712698,31.2448085 142.198519,27.5720681 L142.960609,27.5720681 L142.960609,36.3365234 L142.198519,36.3365234 C141.989821,32.6304255 140.536634,32.1805277 137.105094,32.1454596 L137.105094,42.8489234 L141.298723,42.8489234 C145.870404,42.8489234 147.394583,42.2955319 148.294379,37.1687489 L149.19674,37.1687489 L148.745987,43.6460809 L130.697043,43.6460809" id="Fill-7" fill="#004972"></path>
            <path d="M168.975996,20.7483319 L169.531098,20.7483319 L169.531098,26.6722723 L168.73223,26.6722723 C168.040277,23.2424426 165.544455,20.7834 161.700651,20.7834 C159.483664,20.7834 157.786711,22.2725106 157.093902,23.5537787 C155.741643,26.0829574 155.673217,31.036966 155.673217,32.9417617 C155.673217,38.8999149 156.400238,43.3689574 161.87257,43.3689574 C166.620447,43.3689574 166.860791,40.1820383 166.757298,36.2680979 L163.39846,36.2680979 L163.39846,35.4358723 L172.784732,35.4358723 L172.784732,36.2680979 L170.672949,36.2680979 C170.429183,40.1127574 168.767298,44.1652596 161.735719,44.1652596 C155.327668,44.1652596 151.724209,38.5885787 151.724209,31.937617 C151.724209,25.0779574 156.989553,19.9862426 161.87257,19.9862426 C164.298255,19.9862426 166.273187,20.7141191 167.763153,22.0646681 L168.975996,20.7483319" id="Fill-8" fill="#004972"></path>
            <polyline id="Fill-9" fill="#004972" points="183.663536 43.6460809 174.344834 43.6460809 174.344834 42.8489234 177.323911 42.8489234 177.323911 21.3025787 174.344834 21.3025787 174.344834 20.5062766 183.663536 20.5062766 183.663536 21.3025787 180.683604 21.3025787 180.683604 42.8489234 183.663536 42.8489234 183.663536 43.6460809"></polyline>
            <path d="M186.606689,43.7495745 L186.122579,43.7495745 L186.122579,37.7914213 L186.781174,37.7914213 C187.716038,40.9441277 190.104945,43.3689574 193.466349,43.3689574 C196.44457,43.3689574 199.285085,41.3940255 199.285085,38.3465234 C199.285085,36.3023106 198.800119,35.3665915 196.132379,34.293166 C194.851111,33.8082 189.482272,32.0411106 188.962238,31.6947064 C186.954804,30.4476511 186.155936,28.3341574 186.155936,26.3942936 C186.155936,24.9744638 186.571621,23.7616213 187.575766,22.4452851 C188.614979,21.0947362 190.311932,19.9862426 192.94546,19.9862426 C194.538919,19.9862426 196.790974,20.9903872 197.483783,21.5104213 L198.800119,20.5062766 L199.285085,20.5062766 L199.285085,25.910183 L198.591421,25.910183 C197.829332,23.0346 195.78683,20.7834 192.70426,20.7834 C190.348711,20.7834 187.784464,22.4110723 187.784464,25.0086766 C187.784464,30.7598426 200.913613,27.0528894 200.913613,36.4750851 C200.913613,41.2212511 197.933681,44.1652596 193.396213,44.1652596 C191.456349,44.1652596 189.51734,43.6460809 188.097511,42.2262511 L186.606689,43.7495745" id="Fill-10" fill="#004972"></path>
            <path d="M102.068655,0.427659574 L102.068655,63.293617" id="Stroke-11" stroke="#8C7D72" stroke-width="1.25"></path>
        </g>
    </g>
</svg>